HIERARCHY
ROOT Hips
{
  OFFSET 0 0 0
  CHANNELS 6 Xposition Yposition Zposition Zrotation Xrotation Yrotation
  JOINT Spine
  {
    OFFSET 0 10 0
    CHANNELS 3 Zrotation Xrotation Yrotation
    JOINT Neck
    {
      OFFSET 0 30 0
      CHANNELS 3 Zrotation Xrotation Yrotation
      JOINT Head
      {
        OFFSET 0 7.99999 0
        CHANNELS 3 Zrotation Xrotation Yrotation
        End Site
        {
          OFFSET 0 10 0
        }
      }
    }
    JOINT LeftArm
    {
      OFFSET 15 30 0
      CHANNELS 3 Zrotation Xrotation Yrotation
      JOINT LeftForeArm
      {
        OFFSET 25 0 0
        CHANNELS 3 Zrotation Xrotation Yrotation
        JOINT LeftHand
        {
          OFFSET 25 -1.6283e-005 0
          CHANNELS 3 Zrotation Xrotation Yrotation
          End Site
          {
            OFFSET 10 0 0
          }
        }
      }
    }
    JOINT RightArm
    {
      OFFSET -15 30 0
      CHANNELS 3 Zrotation Xrotation Yrotation
      JOINT RightForeArm
      {
        OFFSET -25 0 0
        CHANNELS 3 Zrotation Xrotation Yrotation
        JOINT RightHand
        {
          OFFSET -25 0 0
          CHANNELS 3 Zrotation Xrotation Yrotation
          End Site
          {
            OFFSET -10 0 0
          }
        }
      }
    }
  }
  JOINT LeftUpLeg
  {
    OFFSET 10 -10 0
    CHANNELS 3 Zrotation Xrotation Yrotation
    JOINT LeftLeg
    {
      OFFSET 0 -35 0
      CHANNELS 3 Zrotation Xrotation Yrotation
      JOINT LeftToe
      {
        OFFSET 0 -40 0
        CHANNELS 3 Zrotation Xrotation Yrotation
        JOINT LeftToeEnd
        {
          OFFSET 0 0 0
          CHANNELS 3 Zrotation Xrotation Yrotation
          End Site
          {
            OFFSET 0 0 15
          }
        }
      }
    }
  }
  JOINT RightUpLeg
  {
    OFFSET -10 -10 0
    CHANNELS 3 Zrotation Xrotation Yrotation
    JOINT RightLeg
    {
      OFFSET 0 -35 0
      CHANNELS 3 Zrotation Xrotation Yrotation
      JOINT RightToe
      {
        OFFSET 0 -40 0
        CHANNELS 3 Zrotation Xrotation Yrotation
        JOINT RightToeEnd
        {
          OFFSET 0 0 0
          CHANNELS 3 Zrotation Xrotation Yrotation
          End Site
          {
            OFFSET 0 0 15
          }
        }
      }
    }
  }
}
MOTION
Frames:	11
Frame Time:	0.0333333
3.82642 114.489 -4.62488 -2.56304 0.718492 -8.70437 2.0689 1.66242 3.49325 -9.84898 -32.712 -3.81083 17.4354 24.4336 -7.84561 -59.958 27.6371 6.87786 -5.87636e-015 3.18055e-015 -46.2496 25.787 8.61605 -6.75248 73.7477 -37.6941 8.73063 1.19627e-014 -9.54166e-015 39.4268 -25.5308 22.8294 5.5701 6.04041 3.26362 2.9532 -6.95746e-016 4.01969 -0 -21.7756 26.385 29.5607 -3.18056e-015 -1.34e-005 -3.18055e-015 -2.79098 3.38935 8.46576 -8.24715e-016 3.41739 -2.48923e-017 15.7083 27.3114 -27.0791 4.77083e-015 3.18055e-015 3.18055e-015 
3.70175 118.843 -5.92382 -1.69871 -2.12827 -8.25774 -0.612588 10.2963 3.6298 -8.91008 -35.4345 -4.34852 17.165 19.8417 -7.46131 -62.1772 15.2415 -0.989892 4.28053e-015 0 -42.01 23.4502 9.29098 -5.09014 79.2693 -37.3335 12.4657 -7.07693e-015 9.54166e-015 36.5639 -23.631 22.9213 4.62211 5.12747 4.37369 3.39394 -2.82175e-016 4.21083 7.97291e-016 -23.0048 33.9687 26.5922 -1.59028e-015 -1.34e-005 1.59028e-015 -3.43595 2.67573 7.13078 -6.64453e-016 9.68699 2.0166e-016 15.7005 35.5929 -23.0743 4.77083e-015 6.36111e-015 1.59028e-015 
3.63497 122.497 -5.89829 -0.23191 -2.02706 -7.87396 -3.52445 10.163 3.37021 -6.73868 -34.9668 -3.69997 16.9797 21.8193 -7.44189 -64.9522 9.96407 -3.34595 -8.91872e-015 -6.36111e-015 -37.6244 20.8033 5.36989 -3.83058 81.2566 -34.7884 11.1776 -1.18316e-014 1.27222e-014 32.3742 -21.0596 23.3829 3.46589 3.74364 3.42717 -0.112518 5.2181e-016 3.61721 -0 -21.5247 29.6158 26.0904 3.71925e-022 -1.34e-005 1.59028e-015 -4.52328 1.11797 8.38707 -3.35452e-016 12.1238 -1.0166e-016 14.4558 35.3634 -20.9917 -1.59028e-015 0 3.18055e-015 
3.64011 125.168 -5.5418 -0.245288 -0.232211 -6.40472 -3.27422 6.74005 1.58527 -5.8077 -32.8708 -3.37741 16.0503 23.5185 -6.95509 -67.6633 8.29344 -3.44603 -4.00707e-015 -3.18055e-015 -33.4493 18.6581 4.27552 -2.98795 82.4747 -33.523 8.84698 -1.80853e-015 0 28.4398 -18.8109 24.738 2.56118 4.08616 0.775044 -1.03822 -1.45655e-015 3.71267 3.18724e-015 -19.0297 24.4077 25.6544 1.59028e-015 -1.34e-005 -1.59028e-015 -4.32306 2.5889 10.6535 -3.82058e-016 6.02198 7.99551e-016 13.3236 33.0783 -19.9357 3.53113e-031 -1.27222e-014 1.59028e-015 
3.67007 126.711 -5.60827 -1.01167 0.713334 -5.0424 -1.57429 6.53053 0.619392 -6.71925 -32.9257 -3.78106 15.355 23.2762 -6.59275 -70.0846 8.72621 -4.99091 -1.95461e-017 -3.18055e-015 -30.3515 17.1907 5.78922 -2.47466 83.7144 -33.6819 7.66166 3.13153e-015 -6.36111e-015 26.2107 -17.5155 24.9631 2.08478 5.12759 -1.20191 -0.307497 1.2424e-016 4.06925 -0 -18.3468 26.2987 23.3659 1.59028e-015 -1.34e-005 -1.59028e-015 -3.27646 2.4939 12.6106 1.10712e-015 4.07137 -1.5943e-015 12.4742 28.7154 -19.762 -7.95139e-016 6.36111e-015 3.18055e-015 
3.79852 127.18 -5.93632 -1.32709 0.217353 -4.47022 -0.476688 9.14944 0.343974 -7.09066 -33.7656 -3.92709 14.2776 21.9467 -5.86732 -71.7596 9.79971 -7.05151 3.52066e-015 3.18055e-015 -28.322 16.212 9.52571 -2.13161 84.8883 -32.9882 7.678 -1.43916e-015 3.18055e-015 24.3461 -16.3307 23.2144 1.87467 5.52041 -1.31377 -0.677172 1.08398e-016 4.22224 -7.97303e-016 -17.3034 29.58 19.4483 -1.59028e-015 -1.34e-005 -0 -2.8787 2.65441 13.4117 3.15008e-016 3.87826 -3.18785e-015 11.0738 25.5627 -18.0805 1.59028e-015 -6.36111e-015 -0 
3.91348 126.592 -6.29719 -1.84761 -0.0430345 -4.23337 1.09787 10.9049 0.135377 -7.5268 -35.0493 -3.94463 13.2567 22.6853 -5.24522 -73.6526 11.6838 -8.20565 -1.49868e-015 -6.36111e-015 -27.3408 15.6885 10.0464 -2.01734 85.1848 -32.0469 7.59454 -2.19471e-015 9.54166e-015 22.3012 -14.992 21.703 1.67539 6.17388 -1.40587 -1.05265 2.02641e-016 4.32905 1.59483e-015 -15.7628 31.4701 15.8159 2.38542e-015 -1.34e-005 -7.95139e-016 -2.2597 2.4149 14.0423 1.43031e-015 3.96667 1.5941e-015 9.49496 23.5372 -15.6915 -1.19271e-015 0 -0 
3.9927 124.972 -6.59444 -1.53047 0.0227313 -4.01823 1.13755 11.9353 -0.264735 -6.17445 -36.2256 -3.38446 11.8135 24.3234 -4.50442 -75.0996 13.4298 -7.95506 1.79709e-015 0 -27.7585 15.9345 9.03368 -2.09142 86.0043 -31.1094 7.48252 1.69315e-015 0 20.0752 -13.53 21.9001 1.23785 5.79389 -3.25926 -1.13698 -1.09332e-015 7.28081 -0 -13.7459 30.8992 11.9108 -3.9757e-016 -1.34e-005 -7.95139e-016 -2.59087 1.77175 14.5158 3.17276e-016 4.26124 -1.59469e-015 7.88735 22.2903 -12.9841 -9.93923e-017 3.18055e-015 1.98785e-016 
4.17831 122.4 -6.76563 -1.45088 0.330745 -4.33481 1.8258 12.5634 -0.307822 -5.70699 -36.8133 -3.11394 10.8649 25.0023 -4.1543 -76.8188 15.5318 -7.31198 1.73084e-015 3.18055e-015 -28.5548 16.3313 6.82403 -2.22481 86.3834 -30.4804 7.4788 1.8928e-015 -3.18055e-015 18.3518 -12.5063 22.2688 0.845137 5.58831 -5.08067 -1.1019 -9.93923e-017 9.91505 -0 -12.431 29.5482 9.5407 3.9757e-016 -1.34e-005 7.95139e-016 -2.82174 1.16563 14.7165 -1.49089e-016 4.34992 -0 6.486 19.0572 -11.5469 4.96962e-017 0 -1.98785e-016 
4.38325 118.773 -7.00305 -1.25937 0.732263 -4.85687 2.27359 13.2256 -0.143489 -5.86833 -36.9939 -3.13962 10.6855 24.6409 -4.11536 -78.0182 17.1772 -7.09864 -1.8106e-015 0 -28.56 16.3206 5.57137 -2.24353 86.6936 -29.9097 7.34891 5.90337e-015 -1.59028e-014 17.679 -12.3951 24.5128 0.891138 5.2554 -6.47882 -0.679579 2.98177e-016 11.7073 -0 -12.2372 29.0677 9.00068 -1.19271e-015 -1.34e-005 3.97569e-016 -2.70988 -1.36018 14.8113 1.22998e-015 7.69871 -0 5.57813 13.1434 -12.5152 1.98785e-016 -6.36111e-015 3.97569e-016 
4.63761 114.156 -7.18863 -1.02693 0.996186 -5.31294 2.79256 14.0417 -0.169065 -6.15234 -36.7795 -3.17528 10.7678 23.7685 -3.98433 -78.9683 18.615 -7.06148 -3.61371e-015 0 -28.3414 16.2143 5.27869 -2.24812 86.9361 -29.0625 7.29111 2.23833e-015 -3.18055e-015 17.2775 -12.2785 25.0236 0.908579 4.77473 -7.94048 0.18527 6.96334e-016 14.0761 -8.19753e-016 -11.7603 27.33 8.36564 -7.95139e-016 -1.34e-005 -7.95139e-016 -2.89032 -3.10351 14.4838 7.51928e-017 9.77512 -1.61371e-015 5.12738 9.6171 -14.7342 1.19271e-015 -3.18055e-015 -1.59028e-015 
